<svg width="211" height="211" viewBox="0 0 211 211" fill="none" xmlns="http://www.w3.org/2000/svg">
<path d="M111.327 205.396L204.704 111.829C208.126 108.4 208.126 102.867 204.704 99.1761L111.327 5.59927C110.517 4.7846 109.554 4.13813 108.493 3.69701C107.432 3.25589 106.295 3.02881 105.146 3.02881C103.997 3.02881 102.86 3.25589 101.799 3.69701C100.738 4.13813 99.7748 4.7846 98.9644 5.59927L5.5909 99.1727C3.94914 100.816 3.02686 103.044 3.02686 105.367C3.02686 107.69 3.94914 109.918 5.5909 111.561L98.9678 205.135C99.7444 205.994 100.688 206.686 101.742 207.167C102.795 207.648 103.935 207.909 105.093 207.933C106.251 207.958 107.401 207.745 108.474 207.309C109.546 206.873 110.519 206.222 111.331 205.396H111.327Z" fill="white"/>
<path d="M96.0715 207.246L3.74912 114.46C1.34871 112.043 0.00146484 108.774 0.00146484 105.367C0.00146484 101.96 1.34871 98.6906 3.74912 96.2736L96.0715 3.7518C98.4798 1.34623 101.744 -0.00488281 105.147 -0.00488281C108.55 -0.00488281 111.814 1.34623 114.223 3.7518L206.548 96.2703C208.949 98.6873 210.296 101.956 210.296 105.363C210.296 108.771 208.949 112.039 206.548 114.456L114.219 207.25C111.811 209.653 108.549 211.003 105.147 211.003C101.746 211.003 98.4829 209.653 96.0748 207.25L96.0715 207.246ZM111.33 204.346L203.653 111.827C204.466 111.014 205.112 110.048 205.553 108.985C205.993 107.922 206.22 106.782 206.22 105.631C206.22 104.48 205.993 103.341 205.553 102.278C205.112 101.215 204.466 100.249 203.653 99.4353L111.33 6.65891C110.52 5.84424 109.557 5.19777 108.496 4.75665C107.435 4.31553 106.298 4.08845 105.149 4.08845C104 4.08845 102.862 4.31553 101.802 4.75665C100.741 5.19777 99.7776 5.84424 98.9672 6.65891L6.37705 99.174C5.56323 99.9874 4.91763 100.953 4.47714 102.016C4.03666 103.08 3.80994 104.219 3.80994 105.37C3.80994 106.521 4.03666 107.661 4.47714 108.724C4.91763 109.787 5.56323 110.753 6.37705 111.566L98.7061 204.081C102.389 207.772 107.912 207.772 111.327 204.346H111.33Z" fill="#E31F26"/>
<path d="M99.4932 189.846L64.7711 155.316L65.8222 154.79L120.533 69.1243C124.216 63.5915 120.008 56.2098 113.433 56.2098H64.7711L99.4932 21.1537C102.911 17.7274 108.699 17.7274 112.382 21.1537L147.365 56.2098L146.575 56.4744L91.8639 142.402C88.1814 147.938 92.3894 155.316 98.9643 155.316H146.575L112.117 189.846C108.699 193.273 102.911 193.273 99.4932 189.846V189.846ZM52.9337 143.457L21.6328 111.827C18.2148 108.4 18.2148 102.6 21.6328 98.9088L47.6744 72.8152H97.9131L52.9337 143.457ZM114.484 138.45L159.199 68.3339L189.974 99.1734C193.396 102.6 193.396 108.4 189.974 112.088L163.672 138.446H114.484V138.45Z" fill="#E31F26"/>
</svg>
