<svg xmlns="http://www.w3.org/2000/svg" viewBox="0 0 118.3 94.5"><path d="M27.8 77h24.7c1.4 0 2.3-1.2 2.1-2.1-2.1-14.9-4.7-23.5-4.7-35.7l2.6-12.4c-19.4.5-36.4 2.4-36.4 25.2 0 8.6 2.8 14.2 8.2 23.5.7 1.2 1.8 1.5 3.5 1.5zm62.9 0c1.6 0 2.8-.2 3.5-1.4 5.4-9.6 8.2-14.9 8.2-23.5 0-22.8-17.2-24.7-36.8-25.4l2.6 12.6c0 12.6-2.8 21-4.7 35.7-.3 1 .6 2 2 2h25.2zM20.8 91.4c0-3.5-.2-9.6-1.2-12.1C18 74.9.5 66.2.5 46.4c0-17.2 11.9-27 27-27l25.6 3.3c.2-1.9 1.4-3 2.8-3h.7c-.2-9.1-4.9-8.2-8.2-8.2V8.7c3.3 0 9.1 1.2 9.1-8.2h3c0 9.3 5.6 8.2 8.9 8.2v3c-3.3 0-8.2-1.2-8.2 7.9h.8c1.2 0 2.1.7 2.6 3l26.1-3.3c15.2 0 27 9.8 27 27 0 19.8-17.5 28.4-19.1 32.9-.9 2.6-1.2 8.6-1.2 12.1 0 1.6-1.2 2.6-2.6 2.6h-72c-1.1.1-2-.8-2-2.5z" fill="#f3bf00"/></svg>