<?xml version="1.0" standalone="no"?>
<!DOCTYPE svg PUBLIC "-//W3C//DTD SVG 20010904//EN"
 "http://www.w3.org/TR/2001/REC-SVG-20010904/DTD/svg10.dtd">
<svg version="1.0" xmlns="http://www.w3.org/2000/svg"
 width="522.000000pt" height="417.000000pt" viewBox="0 0 522.000000 417.000000"
 preserveAspectRatio="xMidYMid meet">
<metadata>
Created by potrace 1.15, written by Peter Selinger 2001-2017
</metadata>
<g transform="translate(0.000000,417.000000) scale(0.100000,-0.100000)"
fill="#000000" stroke="none">
<path d="M2440 4083 c-358 -27 -736 -170 -1033 -391 -108 -80 -285 -249 -363
-347 -26 -33 -52 -59 -57 -57 -6 2 -583 444 -855 655 -7 5 -15 8 -17 5 -3 -2
46 -124 108 -271 l113 -266 252 -181 c139 -100 252 -186 252 -192 0 -7 -4 -7
-12 0 -47 37 -422 302 -428 302 -5 0 33 -102 83 -226 l91 -226 70 -56 c39 -31
72 -57 74 -57 1 -1 -7 -28 -19 -61 -113 -325 -130 -762 -44 -1104 95 -379 281
-700 564 -972 306 -295 699 -484 1133 -544 l48 -6 2 290 3 290 75 -43 75 -43
3 -251 2 -251 40 0 40 0 2 252 3 252 75 42 75 41 3 -289 c2 -237 5 -288 16
-288 33 0 249 41 322 61 189 51 398 148 569 262 147 97 198 140 315 257 521
522 711 1272 504 1985 -14 50 -29 96 -34 104 -5 10 13 30 65 71 l72 58 91 226
c49 124 86 226 82 226 -5 0 -100 -66 -212 -146 -191 -138 -256 -180 -218 -142
8 9 123 93 255 188 l239 171 113 266 c62 147 111 269 108 271 -2 3 -10 0 -17
-5 -516 -399 -849 -653 -856 -653 -5 0 -30 26 -54 58 -59 74 -223 235 -313
307 -350 280 -818 441 -1259 433 -55 -1 -121 -3 -146 -5z m-1449 -825 l824
-637 87 -182 c49 -100 86 -184 84 -186 -2 -2 -370 259 -817 581 l-814 586
-102 237 c-57 131 -103 239 -103 241 0 9 65 -40 841 -640z m4056 630 c-3 -7
-48 -115 -101 -239 l-97 -226 -815 -587 c-449 -323 -818 -586 -820 -583 -2 2
36 86 84 186 l88 183 825 638 c453 351 828 639 833 639 4 1 6 -5 3 -11z
m-3790 -1181 c424 -305 770 -547 782 -547 16 0 21 6 21 25 0 30 7 30 77 8 l53
-17 191 -353 191 -354 -4 -419 c-2 -230 -6 -422 -10 -425 -3 -3 -39 14 -79 37
l-74 44 -3 101 -3 102 -79 66 c-52 43 -82 76 -86 93 -3 15 -6 30 -7 34 -1 3
-240 219 -532 480 l-530 473 -46 185 c-25 102 -45 187 -43 188 2 3 981 -758
1037 -806 16 -14 17 -13 17 19 0 33 -21 51 -770 644 l-769 610 -77 190 c-42
105 -79 197 -82 205 -4 9 7 5 29 -11 19 -14 377 -271 796 -572z m3432 387
l-80 -199 -769 -610 c-743 -589 -770 -611 -770 -643 l0 -34 63 50 c412 325
989 773 991 770 2 -1 -18 -86 -43 -188 l-46 -185 -530 -473 c-291 -261 -531
-477 -532 -480 -1 -4 -4 -19 -7 -34 -4 -18 -33 -50 -86 -93 l-79 -66 -3 -102
-3 -101 -74 -44 c-40 -23 -76 -40 -79 -37 -4 3 -8 195 -10 425 l-4 420 191
353 191 353 53 17 c70 22 77 22 77 -8 0 -19 5 -25 23 -25 13 1 342 231 812
569 435 313 791 568 792 567 2 -1 -33 -92 -78 -202z m-2309 -721 l195 -158 2
-260 2 -260 -66 130 c-36 72 -77 154 -90 184 l-24 53 41 -32 40 -32 0 31 c0
25 -25 61 -126 184 -119 144 -139 175 -185 290 -25 62 -32 66 211 -130z m654
140 c-9 -21 -25 -61 -35 -88 -13 -32 -67 -107 -150 -208 -104 -126 -129 -163
-129 -188 l0 -31 40 32 41 32 -24 -53 c-13 -30 -54 -112 -90 -184 l-66 -130 0
257 -1 257 211 171 c116 93 212 170 215 170 2 0 -3 -17 -12 -37z m-731 -1596
l57 -49 0 -243 c0 -162 -4 -246 -11 -250 -5 -4 -19 1 -29 10 -18 16 -20 36
-22 249 -3 197 -5 231 -18 231 -12 0 -16 -21 -18 -117 -1 -65 -5 -118 -8 -118
-3 0 -14 5 -25 10 -18 10 -19 23 -19 182 0 194 -11 182 93 95z m670 -274 c-9
-7 -20 -13 -25 -13 -4 0 -9 53 -10 118 -2 96 -6 117 -18 117 -13 0 -15 -34
-18 -231 -2 -213 -4 -233 -22 -249 -10 -9 -24 -14 -29 -10 -7 4 -11 89 -11
250 l0 244 73 61 72 61 3 -168 c2 -149 1 -169 -15 -180z"/>
</g>
</svg>
